<svg width="21" height="21" viewBox="0 0 21 21" fill="none" xmlns="http://www.w3.org/2000/svg">
<circle cx="10.5" cy="10.5" r="10.5" fill="white"/>
<path d="M7.3996 15C7.30627 15 7.22693 14.972 7.1616 14.916C7.1056 14.8507 7.0776 14.7713 7.0776 14.678V14.23C7.0776 14.146 7.10093 14.0527 7.1476 13.95C7.19427 13.8473 7.2876 13.7353 7.4276 13.614L10.3956 10.646C10.8716 10.2447 11.2449 9.904 11.5156 9.624C11.7956 9.33467 11.9916 9.05933 12.1036 8.798C12.2249 8.53667 12.2856 8.266 12.2856 7.986C12.2856 7.454 12.1363 7.034 11.8376 6.726C11.5389 6.40867 11.0956 6.25 10.5076 6.25C10.1343 6.25 9.81227 6.32933 9.5416 6.488C9.27094 6.63733 9.05627 6.84733 8.8976 7.118C8.74827 7.37933 8.65027 7.678 8.6036 8.014C8.58493 8.13533 8.5336 8.21933 8.4496 8.266C8.37494 8.31267 8.30494 8.336 8.2396 8.336H7.5116C7.4276 8.336 7.3576 8.31267 7.3016 8.266C7.2456 8.21 7.2176 8.14467 7.2176 8.07C7.22693 7.71533 7.3016 7.36067 7.4416 7.006C7.5816 6.642 7.78693 6.31533 8.0576 6.026C8.3376 5.73667 8.67827 5.50333 9.0796 5.326C9.49027 5.13933 9.96627 5.046 10.5076 5.046C11.2449 5.046 11.8469 5.18133 12.3136 5.452C12.7896 5.71333 13.1396 6.06333 13.3636 6.502C13.5876 6.94067 13.6996 7.42133 13.6996 7.944C13.6996 8.35467 13.6296 8.73267 13.4896 9.078C13.3496 9.414 13.1443 9.74533 12.8736 10.072C12.6123 10.3893 12.2856 10.716 11.8936 11.052L9.2056 13.782H13.5736C13.6763 13.782 13.7556 13.81 13.8116 13.866C13.8769 13.922 13.9096 14.0013 13.9096 14.104V14.678C13.9096 14.7713 13.8769 14.8507 13.8116 14.916C13.7556 14.972 13.6763 15 13.5736 15H7.3996Z" fill="black"/>
</svg>
